<svg width="18" height="18" viewBox="0 0 18 18" fill="none" xmlns="http://www.w3.org/2000/svg">
<g clip-path="url(#clip0_393_102)">
<path d="M16.1653 2.9999C16.0972 2.99287 16.0285 2.99287 15.9603 2.9999H1.96031C1.87058 3.00128 1.78145 3.01473 1.69531 3.0399L8.92031 10.2349L16.1653 2.9999Z" fill="black"/>
<path d="M16.9048 3.69482L9.62484 10.9448C9.43748 11.1311 9.18403 11.2356 8.91984 11.2356C8.65566 11.2356 8.40221 11.1311 8.21484 10.9448L0.999844 3.74982C0.977663 3.83134 0.965903 3.91535 0.964844 3.99982V13.9998C0.964844 14.265 1.0702 14.5194 1.25774 14.7069C1.44527 14.8945 1.69963 14.9998 1.96484 14.9998H15.9648C16.2301 14.9998 16.4844 14.8945 16.672 14.7069C16.8595 14.5194 16.9648 14.265 16.9648 13.9998V3.99982C16.9609 3.89565 16.9406 3.79274 16.9048 3.69482ZM2.64984 13.9998H1.95484V13.2848L5.58984 9.67982L6.29484 10.3848L2.64984 13.9998ZM15.9548 13.9998H15.2548L11.6098 10.3848L12.3148 9.67982L15.9498 13.2848L15.9548 13.9998Z" fill="black"/>
</g>
<defs>
<clipPath id="clip0_393_102">
<rect width="18" height="18" fill="white"/>
</clipPath>
</defs>
</svg>
